<svg width="37" height="32" viewBox="0 0 37 32" fill="none" xmlns="http://www.w3.org/2000/svg">
<path d="M36.352 5.6265C36.0439 6.66585 35.7272 7.70236 35.429 8.74455C34.3285 12.5941 33.2345 16.4451 32.1361 20.2954C31.9025 21.1144 31.5972 21.3369 30.7318 21.3369C24.4959 21.3369 18.2608 21.3369 12.025 21.3397C11.8149 21.3397 11.5962 21.3525 11.3953 21.4087C10.9508 21.5324 10.6441 21.9732 10.6541 22.4232C10.664 22.8646 10.9664 23.2834 11.3967 23.4007C11.5983 23.4554 11.8163 23.4689 12.0265 23.4689C18.3212 23.4725 24.6159 23.471 30.9107 23.4725C31.6136 23.4725 32.0814 23.8905 32.09 24.5175C32.0978 25.1111 31.6526 25.586 31.0555 25.5988C30.528 25.6102 30.0005 25.6009 29.4729 25.6166C31.6455 26.1867 32.2575 28.0074 32.053 29.2756C31.7982 30.8588 30.4527 32.0162 28.8652 31.9998C27.2649 31.9835 25.9322 30.7899 25.7285 29.1768C25.556 27.8119 26.31 26.1249 28.3973 25.6208H14.4312C15.2896 25.8355 16.001 26.2806 16.4944 27.0206C16.9885 27.7614 17.1455 28.5839 16.9694 29.4626C16.6698 30.9591 15.2725 32.0517 13.7297 31.997C12.1713 31.9415 10.8954 30.7721 10.6782 29.1996C10.4531 27.5709 11.4294 26.2265 13.3534 25.6016C12.8018 25.6016 12.331 25.6024 11.8603 25.6016C10.2479 25.5981 9.00617 24.6661 8.61071 23.1625C8.23868 21.7492 8.91175 20.3118 10.309 19.534C10.3488 19.512 10.3857 19.4836 10.4354 19.4501C9.15527 13.6818 7.87659 7.9199 6.59364 2.1402C5.51943 2.1402 4.46794 2.1402 3.41574 2.1402C2.74126 2.1402 2.06535 2.11034 1.39299 2.14873C0.738386 2.18641 0.269795 1.96745 0 1.35962V0.792316C0.269795 0.183777 0.739096 -0.00959039 1.39228 0.000362349C3.29576 0.0302206 5.20065 0.011026 7.10412 0.011026C8.07538 0.011026 8.3821 0.26411 8.58586 1.21033C8.80454 2.22338 9.03315 3.235 9.26319 4.27648H9.73391C18.143 4.27648 26.5514 4.28146 34.9604 4.26653C35.6115 4.26511 36.0815 4.45066 36.3513 5.05706V5.62579L36.352 5.6265ZM33.8656 6.42059H9.73888C10.6867 10.6903 11.6296 14.9401 12.5717 19.1843H30.2234C31.4375 14.9288 32.6459 10.6939 33.8656 6.42059ZM13.8419 29.8671C14.407 29.8692 14.9047 29.3737 14.9069 28.8071C14.909 28.2412 14.4141 27.7429 13.8483 27.7408C13.2831 27.7386 12.7854 28.2341 12.7833 28.8007C12.7812 29.3666 13.276 29.865 13.8419 29.8671ZM28.8858 29.8671C29.4488 29.8749 29.9508 29.3823 29.9586 28.815C29.9664 28.2512 29.4744 27.7486 28.9078 27.7408C28.3448 27.7329 27.8428 28.2256 27.835 28.7929C27.8272 29.3567 28.3192 29.8593 28.8858 29.8671Z" fill="white"/>
</svg>
