<svg width="30" height="24" viewBox="0 0 30 24" fill="none" xmlns="http://www.w3.org/2000/svg">
<g clip-path="url(#clip0_24_516)">
<path d="M25.8131 1.65856C25.8242 1.70268 25.8291 1.74845 25.8468 1.78927C26.1374 2.44724 26.0288 3.07323 25.5208 3.58781C24.9461 4.17022 24.3643 4.74657 23.7852 5.32568C18.1414 10.9695 12.4921 16.6078 6.86149 22.2648C6.20241 22.9272 5.53175 23.2482 4.63386 22.8378C4.4684 22.6724 4.30295 22.5069 4.13749 22.3415C4.08895 22.1981 4.02994 22.0563 3.99409 21.9091C3.86062 21.3653 4.00071 20.8887 4.36803 20.4751C4.43917 20.3951 4.51804 20.3218 4.5936 20.2462C10.7614 14.0785 16.9341 7.91566 23.0891 1.73522C23.7482 1.07283 24.4183 0.753495 25.3157 1.16328L25.812 1.65966L25.8131 1.65856Z" fill="#858585"/>
<path d="M4.62611 0.687096C4.70608 0.658968 4.7866 0.633598 4.86547 0.603264C5.46939 0.373276 6.01044 0.479721 6.49083 0.906054C6.5708 0.977201 6.6436 1.05662 6.71916 1.13218C12.8985 7.31152 19.0718 13.4958 25.2643 19.6608C25.9256 20.3188 26.2108 20.9867 25.8043 21.8653L25.3493 22.3203C25.0222 22.3936 24.6968 22.5183 24.3681 22.5293C23.9374 22.5431 23.6048 22.28 23.3081 21.9822C21.6347 20.3056 19.9586 18.6317 18.2836 16.9567C13.7341 12.4071 9.19001 7.85202 4.62886 3.31403C3.9764 2.66488 3.74256 1.98981 4.17054 1.14266C4.32221 0.990989 4.47388 0.839319 4.62555 0.687648L4.62611 0.687096Z" fill="#858585"/>
</g>
<defs>
<clipPath id="clip0_24_516">
<rect width="29.9513" height="24" fill="white"/>
</clipPath>
</defs>
</svg>
