<svg width="33" height="32" viewBox="0 0 33 32" fill="none" xmlns="http://www.w3.org/2000/svg">
<path d="M0 17.12C0 16.3696 0 15.6192 0 14.8694C0.0463514 14.5099 0.0876918 14.1491 0.140307 13.7908C0.595051 10.6878 1.79768 7.90732 3.88725 5.56156C7.72063 1.2559 12.5449 -0.551175 18.2643 0.145348C21.3492 0.521169 24.0795 1.79145 26.4372 3.81713C29.3379 6.31008 31.1475 9.43942 31.8246 13.2077C31.9236 13.7582 31.9893 14.3151 32.0708 14.8688V17.1193C32.0019 17.6223 31.9492 18.1278 31.8615 18.6276C31.2364 22.1986 29.6097 25.2377 26.9539 27.7112C24.657 29.8503 21.9536 31.202 18.8562 31.752C18.295 31.8516 17.7275 31.9179 17.1632 32H14.9082C14.5487 31.9536 14.1885 31.9123 13.8302 31.8597C10.6783 31.3981 7.88098 30.1503 5.48825 28.0451C2.67898 25.5741 0.918884 22.4973 0.249921 18.8124C0.147823 18.2512 0.0820544 17.6843 0 17.12ZM25.1813 15.9944C25.2164 15.9944 25.2515 15.9931 25.2865 15.9931C25.2314 14.4948 25.207 12.9947 25.1112 11.4989C25.0473 10.5086 24.7078 9.59037 24.0877 8.79488C23.0216 7.42689 21.5434 6.9045 19.886 6.87631C17.3197 6.8331 14.7523 6.84374 12.1854 6.87381C10.9903 6.88822 9.85154 7.17822 8.87253 7.91859C7.46758 8.98029 6.92765 10.4704 6.89946 12.1497C6.85687 14.7116 6.86689 17.274 6.89758 19.8365C6.91199 21.0404 7.20701 22.1867 7.96241 23.1688C9.02724 24.5531 10.513 25.0855 12.1823 25.1137C14.7485 25.1575 17.316 25.1469 19.8829 25.1156C21.0892 25.1012 22.2361 24.8043 23.2201 24.0495C24.5963 22.9941 25.1137 21.5246 25.1719 19.8691C25.217 18.5788 25.1807 17.286 25.1807 15.9944H25.1813Z" fill="#E6CD72"/>
<path d="M8.43654 15.9837C8.4854 14.5587 8.50231 13.1312 8.59125 11.7087C8.70337 9.91043 9.94484 8.64015 11.7519 8.57125C14.0645 8.48293 16.3814 8.48732 18.6958 8.48356C19.4124 8.48231 20.1428 8.51175 20.8424 8.65017C22.4115 8.96085 23.4155 10.099 23.4725 11.71C23.554 14.0088 23.5565 16.3107 23.5609 18.6107C23.5621 19.336 23.532 20.0752 23.3942 20.7848C23.0923 22.3426 21.9373 23.3617 20.3326 23.4181C18.0093 23.4995 15.6824 23.5033 13.3567 23.5039C12.6207 23.5039 11.8684 23.4669 11.1525 23.3122C9.61349 22.9784 8.70275 21.8647 8.58687 20.2931C8.53425 19.5772 8.50607 18.8587 8.48978 18.1409C8.4735 17.4225 8.48602 16.7034 8.48602 15.985C8.46911 15.985 8.45283 15.9843 8.43591 15.9837H8.43654ZM16.025 11.2897C13.4049 11.2941 11.3203 13.3799 11.321 15.9956C11.3216 18.6094 13.4093 20.6959 16.0281 20.699C18.6601 20.7021 20.7554 18.6057 20.7472 15.9768C20.7391 13.3624 18.6464 11.2853 16.025 11.2897ZM20.9433 12.1835C21.5433 12.1867 22.0419 11.6993 22.0494 11.1018C22.0569 10.493 21.5508 9.98559 20.9401 9.98998C20.3407 9.99499 19.8515 10.4886 19.8521 11.0886C19.8521 11.6893 20.3419 12.1798 20.9433 12.1829V12.1835Z" fill="#E6CD72"/>
<path d="M16.0639 12.9321C17.7651 12.9384 19.1124 14.3158 19.1024 16.0383C19.093 17.7188 17.7143 19.063 16.0062 19.0561C14.3069 19.0499 12.9577 17.6712 12.9671 15.9493C12.9759 14.2707 14.3564 12.9252 16.0639 12.9315V12.9321Z" fill="#E6CD72"/>
</svg>
