<svg width="33" height="32" viewBox="0 0 33 32" fill="none" xmlns="http://www.w3.org/2000/svg">
<g clip-path="url(#clip0_24_53)">
<path d="M15.9991 31.9895C13.2228 31.9895 10.4465 32.0145 7.67027 31.9832C4.0457 31.9415 1.49871 30.32 0.537854 27.3478C0.212706 26.3432 0.0480477 25.2427 0.0376263 24.1859C-0.0123965 18.7376 -0.00614362 13.2872 0.0230363 7.8389C0.0313735 6.20065 0.281487 4.58533 1.21941 3.17427C2.51792 1.21713 4.37919 0.0999538 6.69691 0.0707738C12.9081 -0.00426039 19.1213 -0.0438618 25.3304 0.0749424C29.3176 0.152061 31.9668 3.17844 32.0293 7.59087C32.1106 13.2122 32.1293 18.8377 32.0251 24.459C31.9355 29.2945 29.0842 31.9541 24.2236 31.9832C21.4828 31.9999 18.7399 31.9853 15.997 31.9874L15.9991 31.9895ZM28.7549 15.0568H28.7507C28.7507 13.4602 28.7174 11.8616 28.7653 10.265C28.7861 9.57719 28.5277 9.16659 27.9545 8.84352C26.7164 8.14737 25.4826 7.44288 24.2758 6.69879C23.7443 6.36948 23.317 6.31737 22.7584 6.6717C21.562 7.43246 20.3135 8.11402 19.0901 8.83519C17.185 9.95861 15.2862 9.93777 13.3854 8.82476C12.1911 8.12444 10.9801 7.44914 9.80666 6.71338C9.27934 6.38198 8.84581 6.3132 8.29139 6.65711C7.02623 7.44288 5.69854 8.12861 4.46256 8.95399C4.10615 9.1916 3.77683 9.76061 3.76849 10.1858C3.71222 13.4831 3.71222 16.7826 3.76849 20.082C3.77475 20.4967 4.10615 21.0824 4.46256 21.2909C8.1038 23.4314 11.7888 25.5011 15.4446 27.6187C16.0282 27.9564 16.4993 27.9418 17.0766 27.6083C20.7033 25.5115 24.3425 23.4314 27.992 21.3721C28.5444 21.0595 28.7799 20.6948 28.7653 20.0549C28.7299 18.3895 28.7528 16.7221 28.7528 15.0547L28.7549 15.0568Z" fill="white"/>
<path d="M18.3917 19.3317C17.9186 19.2004 17.5434 19.0941 16.8848 18.9107C15.5633 19.5964 14.3149 19.4755 13.454 18.3605C12.5953 17.2474 12.6766 15.4383 13.6312 14.4295C14.5691 13.4395 15.7593 13.3832 16.9369 14.1648C17.4455 13.9835 17.8519 13.8396 18.3896 13.6479V19.3338L18.3917 19.3317ZM17.4267 16.4638C17.3996 15.457 16.5909 14.6296 15.6634 14.6567C14.738 14.6838 13.9418 15.5633 13.9647 16.5367C13.9876 17.5184 14.8234 18.3792 15.7343 18.3563C16.6513 18.3354 17.4538 17.4371 17.4267 16.4638Z" fill="white"/>
<path d="M23.5774 13.8355C23.2293 15.728 21.4806 16.5888 20.6907 18.1937H23.4711V19.1879H19.0399C19.2775 17.2537 21.0971 16.4262 21.8787 14.7609C21.1513 14.7609 20.5093 14.7338 19.8716 14.7692C19.1754 14.8068 19.0149 14.5004 19.2275 13.8376H23.5795L23.5774 13.8355Z" fill="white"/>
<path d="M9.0041 12.6662H10.1317V18.0874H12.6328C12.662 18.5022 12.6849 18.7961 12.71 19.1629H9.0041V12.6662Z" fill="white"/>
</g>
<defs>
<clipPath id="clip0_24_53">
<rect width="32.098" height="32" fill="white"/>
</clipPath>
</defs>
</svg>
