<svg width="33" height="32" viewBox="0 0 33 32" fill="none" xmlns="http://www.w3.org/2000/svg">
<g clip-path="url(#clip0_24_102)">
<path d="M32.0524 14.8702V17.1198C31.9848 17.6122 31.9339 18.1072 31.8471 18.5963C31.1267 22.6705 29.1685 26.0319 25.8998 28.5727C21.9909 31.6119 17.5569 32.6127 12.7073 31.6427C9.62476 31.0267 6.9679 29.5527 4.74174 27.3399C2.357 24.9693 0.846186 22.1255 0.249373 18.8117C0.148374 18.2508 0.081598 17.684 -0.0010376 17.1198C-0.0010376 16.3702 -0.0010376 15.6206 -0.0010376 14.8702C0.01983 14.7692 0.0465405 14.6699 0.0615651 14.5681C0.136688 14.0339 0.182597 13.4938 0.2861 12.9654C0.902111 9.82278 2.33279 7.09831 4.57981 4.81457C6.96957 2.38642 9.84428 0.852232 13.2073 0.250411C13.7682 0.150247 14.335 0.0826356 14.8992 0C15.6505 0 16.4017 0 17.1529 0C17.6663 0.070115 18.183 0.123536 18.6938 0.212014C21.6528 0.728696 24.2821 1.95487 26.54 3.93479C29.3588 6.40718 31.1284 9.48723 31.8011 13.1808C31.903 13.7409 31.9689 14.3068 32.0524 14.8702ZM16.0236 22.537C18.4434 22.537 20.8624 22.5386 23.2822 22.537C24.581 22.5361 25.3689 21.7565 25.3706 20.4619C25.3739 17.4854 25.3739 14.5088 25.3706 11.5314C25.3689 10.2335 24.5843 9.45384 23.2863 9.45301C18.4476 9.45134 13.6088 9.45134 8.77002 9.45301C7.47039 9.45301 6.68326 10.2335 6.68159 11.5272C6.67826 14.5038 6.67992 17.4803 6.68243 20.4577C6.68243 20.6539 6.68744 20.8567 6.73335 21.0454C6.96038 21.9802 7.69158 22.5345 8.70324 22.5361C11.1439 22.5403 13.5838 22.5378 16.0244 22.5378L16.0236 22.537Z" fill="#E6CD72"/>
<path d="M22.6513 10.9688C20.4185 12.9437 18.2349 14.8744 16.0279 16.8251C13.8302 14.8819 11.6399 12.9462 9.40375 10.9688H22.6513Z" fill="#E6CD72"/>
<path d="M14.3477 17.3318C14.7233 17.664 15.0722 17.9762 15.4245 18.2825C15.8669 18.6673 16.1899 18.6648 16.6365 18.2758C16.9887 17.9695 17.3368 17.6582 17.7065 17.3326C19.2791 18.5555 20.8375 19.7674 22.456 21.0253H9.59991C11.2101 19.7733 12.7643 18.5638 14.3477 17.3318Z" fill="#E6CD72"/>
<path d="M8.1684 20.249V11.8678C9.87703 13.3778 11.5306 14.8393 13.2133 16.3259C11.5356 17.6306 9.88037 18.9177 8.1684 20.249Z" fill="#E6CD72"/>
<path d="M23.875 20.2399C22.1731 18.9169 20.522 17.6331 18.8426 16.3276C20.5128 14.851 22.1697 13.3861 23.875 11.8778V20.2407V20.2399Z" fill="#E6CD72"/>
</g>
<defs>
<clipPath id="clip0_24_102">
<rect width="32.0526" height="32" fill="white"/>
</clipPath>
</defs>
</svg>
