<svg width="30" height="24" viewBox="0 0 30 24" fill="none" xmlns="http://www.w3.org/2000/svg">
<g clip-path="url(#clip0_24_320)">
<path d="M29.9513 12.351C29.9279 12.39 29.899 12.4259 29.8827 12.4672C29.6229 13.138 29.1035 13.5038 28.3804 13.5085C27.5622 13.514 26.7432 13.5101 25.9243 13.5101C17.9427 13.5101 9.96118 13.5023 1.97964 13.521C1.04522 13.5233 0.344019 13.2761 -0.000732422 12.351C-0.000732422 12.117 -0.000732422 11.883 -0.000732422 11.649C0.0663459 11.5133 0.124844 11.3713 0.203622 11.2419C0.493775 10.763 0.929784 10.5251 1.48201 10.4923C1.58887 10.4861 1.69651 10.49 1.80336 10.49C10.5259 10.49 19.2484 10.497 27.9709 10.4791C28.9053 10.4767 29.605 10.7247 29.9497 11.649V12.351H29.9513Z" fill="#858585"/>
<path d="M0 1.17682C0.0366591 1.10038 0.0756581 1.02551 0.109977 0.948288C0.374391 0.358623 0.832239 0.0513106 1.47338 0.0130916C1.58024 0.00685173 1.68788 0.0115316 1.79474 0.0115316C10.5336 0.0115316 19.2718 0.0193314 28.0099 -0.000168092C28.9427 -0.00250803 29.6166 0.268145 29.9505 1.17682V1.82031C29.7711 2.10344 29.6291 2.42167 29.4045 2.66191C29.1097 2.97624 28.6885 3.02538 28.2681 3.0246C25.8993 3.02226 23.5305 3.02382 21.1616 3.02382C14.7276 3.02382 8.29353 3.01602 1.85947 3.0324C0.939097 3.03474 0.296393 2.72274 0 1.82109C0 1.60659 0 1.3921 0 1.1776L0 1.17682Z" fill="#858585"/>
<path d="M29.9513 22.823C29.9115 22.908 29.8717 22.993 29.8311 23.0781C29.5667 23.6389 29.1221 23.9384 28.5067 23.986C28.3999 23.9945 28.2922 23.9883 28.1854 23.9883C19.4371 23.9883 10.6896 23.9805 1.94137 24C1.00851 24.0023 0.334612 23.7317 0 22.823C0 22.6085 0 22.394 0 22.1795C0.179396 21.8956 0.321352 21.5774 0.546766 21.3371C0.841599 21.0228 1.26279 20.9752 1.68398 20.9752C4.75476 20.9776 7.82555 20.976 10.8971 20.976C16.6292 20.976 22.362 20.9846 28.0941 20.9674C29.0145 20.9643 29.6572 21.2771 29.952 22.1787V22.8222L29.9513 22.823Z" fill="#858585"/>
</g>
<defs>
<clipPath id="clip0_24_320">
<rect width="29.9513" height="24" fill="white"/>
</clipPath>
</defs>
</svg>
